<svg xmlns="http://www.w3.org/2000/svg" viewBox="0 0 100 100">
  <rect width="100" height="100" rx="15" fill="#f8f8f8"/>
  <circle cx="35" cy="40" r="12" fill="#e3066a"/>
  <circle cx="58" cy="40" r="12" fill="#1ab9ff"/>
  <circle cx="35" cy="63" r="12" fill="#fcc003"/>
  <circle cx="58" cy="63" r="12" fill="#41b658"/>
  <line x1="35" y1="40" x2="58" y2="40" stroke="#e3066a" stroke-width="4"/>
  <line x1="58" y1="40" x2="58" y2="63" stroke="#1ab9ff" stroke-width="4"/>
  <line x1="58" y1="63" x2="35" y2="63" stroke="#41b658" stroke-width="4"/>
  <line x1="35" y1="63" x2="35" y2="40" stroke="#fcc003" stroke-width="4"/>
  <g transform="translate(70, 30)">
    <rect x="0" y="0" width="18" height="40" rx="3" fill="#f0f0f0" stroke="#1ab9ff" stroke-width="2"/>
    <line x1="4" y1="8" x2="14" y2="8" stroke="#fcc003" stroke-width="2"/>
    <line x1="4" y1="14" x2="14" y2="14" stroke="#41b658" stroke-width="2"/>
    <line x1="4" y1="20" x2="10" y2="20" stroke="#e3066a" stroke-width="2"/>
    <line x1="6" y1="28" x2="14" y2="28" stroke="#1ab9ff" stroke-width="2"/>
    <line x1="6" y1="34" x2="12" y2="34" stroke="#fcc003" stroke-width="2"/>
    <path d="M-3,20 C-8,20 -8,28 -3,28" stroke="#1ab9ff" stroke-width="2" fill="none"/>
  </g>
</svg>